<svg width="1239" height="705" viewBox="0 0 1239 705" fill="none" xmlns="http://www.w3.org/2000/svg">
<rect width="1239" height="705" fill="url(#paint0_radial_176_27)"/>
<path d="M417.812 266.625C415.938 266.625 415 265.896 415 264.438V260.562C415 259.104 415.938 258.375 417.812 258.375H424.5V250.938C424.5 243.479 427.021 238.25 432.062 235.25C437.146 232.208 442.875 230.688 449.25 230.688C455.125 230.688 460 231.396 463.875 232.812C467.75 234.188 470.729 235.812 472.812 237.688V321.188C472.812 323.062 471.875 324 470 324H464.625C462.75 324 461.812 323.062 461.812 321.188V242.438C459.979 241.062 457.917 240.125 455.625 239.625C453.333 239.083 451.312 238.812 449.562 238.812C446.396 238.812 443.25 239.542 440.125 241C437.042 242.417 435.5 246.333 435.5 252.75V258.375H446.938C448.812 258.375 449.75 259.104 449.75 260.562V264.438C449.75 265.896 448.812 266.625 446.938 266.625H435.5V321.188C435.5 323.062 434.562 324 432.688 324H427.312C425.438 324 424.5 323.062 424.5 321.188V266.625H417.812ZM487 291.188C487 281.396 489.583 273.312 494.75 266.938C499.958 260.521 507.562 257.312 517.562 257.312C527.562 257.312 535.146 260.521 540.312 266.938C545.521 273.312 548.125 281.396 548.125 291.188C548.125 300.979 545.521 309.083 540.312 315.5C535.146 321.875 527.562 325.062 517.562 325.062C507.562 325.062 499.958 321.875 494.75 315.5C489.583 309.083 487 300.979 487 291.188ZM498.625 291.188C498.625 299.938 500.354 306.417 503.812 310.625C507.271 314.833 511.854 316.938 517.562 316.938C523.271 316.938 527.854 314.833 531.312 310.625C534.771 306.417 536.5 299.938 536.5 291.188C536.5 282.438 534.771 275.958 531.312 271.75C527.854 267.542 523.271 265.438 517.562 265.438C511.854 265.438 507.271 267.542 503.812 271.75C500.354 275.958 498.625 282.438 498.625 291.188ZM562.188 301.125V261.188C562.188 259.312 563.125 258.375 565 258.375H570.375C572.25 258.375 573.188 259.312 573.188 261.188V298.125C573.188 306.292 574.542 311.479 577.25 313.688C579.958 315.854 583.312 316.938 587.312 316.938C592.562 316.938 596.583 315.333 599.375 312.125C602.167 308.875 603.562 303.333 603.562 295.5V261.188C603.562 259.312 604.5 258.375 606.375 258.375H611.75C613.625 258.375 614.562 259.312 614.562 261.188V321.188C614.562 323.062 613.625 324 611.75 324H606.5C604.625 324 603.688 323.062 603.688 321.188V316.188H603.438C600.729 319.188 597.812 321.417 594.688 322.875C591.562 324.333 587.75 325.062 583.25 325.062C575.958 325.062 570.625 322.938 567.25 318.688C563.875 314.396 562.188 308.542 562.188 301.125ZM635.125 324C633.25 324 632.312 323.062 632.312 321.188V261.188C632.312 259.312 633.25 258.375 635.125 258.375H640.375C642.25 258.375 643.188 259.312 643.188 261.188V268.688H643.438C645.438 264.938 647.792 262.104 650.5 260.188C653.208 258.271 656.583 257.312 660.625 257.312C663.292 257.312 665.167 257.542 666.25 258C667.208 258.375 667.562 259 667.312 259.875L665.875 265C665.667 265.75 665.125 266.042 664.25 265.875C662.792 265.583 661.417 265.438 660.125 265.438C655.25 265.438 651.229 267.646 648.062 272.062C644.896 276.438 643.312 282.417 643.312 290V321.188C643.312 323.062 642.375 324 640.5 324H635.125ZM680.25 324C678.375 324 677.438 323.062 677.438 321.188V261.188C677.438 259.312 678.375 258.375 680.25 258.375H685.625C687.5 258.375 688.438 259.312 688.438 261.188V321.188C688.438 323.062 687.5 324 685.625 324H680.25ZM680.25 246.5C678.375 246.5 677.438 245.562 677.438 243.688V238.312C677.438 236.438 678.375 235.5 680.25 235.5H685.625C687.5 235.5 688.438 236.438 688.438 238.312V243.688C688.438 245.562 687.5 246.5 685.625 246.5H680.25ZM703.625 317.875C702.333 316.667 702.062 315.542 702.812 314.5L705.625 310.562C706.542 309.312 707.896 309.375 709.688 310.75C712.146 312.625 714.875 314.125 717.875 315.25C720.917 316.375 724.375 316.938 728.25 316.938C730.542 316.938 732.583 316.667 734.375 316.125C736.167 315.542 737.729 314.479 739.062 312.938C740.438 311.396 741.125 309.333 741.125 306.75C741.125 305.25 740.792 303.833 740.125 302.5C739.5 301.167 738.5 300.104 737.125 299.312C735.792 298.479 734.479 297.833 733.188 297.375C731.062 296.583 728.938 295.938 726.812 295.438C724.729 294.896 721.979 294.083 718.562 293C716.271 292.292 714.104 291.292 712.062 290C710.021 288.667 708.229 286.875 706.688 284.625C705.188 282.375 704.438 279.271 704.438 275.312C704.438 271.271 705.667 267.792 708.125 264.875C710.583 261.958 713.667 259.979 717.375 258.938C721.083 257.854 724.688 257.312 728.188 257.312C733.354 257.312 737.5 257.917 740.625 259.125C743.792 260.292 746.521 261.688 748.812 263.312C750.146 264.271 750.333 265.375 749.375 266.625L746.562 270.375C745.688 271.583 744.333 271.542 742.5 270.25C740.958 269.167 738.771 268.146 735.938 267.188C733.104 266.229 730.625 265.75 728.5 265.75C725.875 265.75 723.625 266.042 721.75 266.625C719.875 267.208 718.354 268.208 717.188 269.625C716.021 271.042 715.438 272.708 715.438 274.625C715.438 276.083 715.667 277.396 716.125 278.562C716.583 279.688 717.438 280.729 718.688 281.688C719.938 282.646 721.688 283.417 723.938 284C727.438 284.917 730.625 285.75 733.5 286.5C736.417 287.25 739.042 288.167 741.375 289.25C744.417 290.667 746.75 292.229 748.375 293.938C750.042 295.646 751.188 297.5 751.812 299.5C752.438 301.458 752.75 303.646 752.75 306.062C752.75 310.521 751.417 314.292 748.75 317.375C746.125 320.458 743.188 322.521 739.938 323.562C736.688 324.562 732.771 325.062 728.188 325.062C721.979 325.062 716.646 324.188 712.188 322.438C707.771 320.646 704.917 319.125 703.625 317.875ZM768 324C766.125 324 765.188 323.062 765.188 321.188V234.562C765.188 232.688 766.125 231.75 768 231.75H773.375C775.25 231.75 776.188 232.688 776.188 234.562V262.438C776.188 263.688 776.146 264.938 776.062 266.188H776.312C779.021 263.188 781.938 260.958 785.062 259.5C788.188 258.042 792.083 257.312 796.75 257.312C804.333 257.312 809.771 259.458 813.062 263.75C816.396 268 818.062 273.833 818.062 281.25V321.188C818.062 323.062 817.125 324 815.25 324H809.875C808 324 807.062 323.062 807.062 321.188V284.25C807.062 276.083 805.708 270.917 803 268.75C800.292 266.542 796.854 265.438 792.688 265.438C787.271 265.438 783.167 267.062 780.375 270.312C777.583 273.521 776.188 279.042 776.188 286.875V321.188C776.188 323.062 775.25 324 773.375 324H768Z" fill="url(#paint1_radial_176_27)"/>
<path d="M281.375 407.25C281.375 403.542 283.104 400.823 286.562 399.094C290.042 397.365 295.229 396.354 302.125 396.062V393.938C302.125 391.979 301.677 390.292 300.781 388.875C299.906 387.438 298.156 386.719 295.531 386.719C293.865 386.719 292.531 386.885 291.531 387.219C290.531 387.531 289.615 387.958 288.781 388.5C287.969 389.021 287.188 389.698 286.438 390.531C285.875 391.156 285.344 391.188 284.844 390.625L283.219 388.75C282.76 388.229 282.917 387.604 283.688 386.875C284.792 385.833 285.865 385.052 286.906 384.531C287.948 384.01 289.24 383.573 290.781 383.219C292.344 382.844 293.927 382.656 295.531 382.656C299.885 382.656 302.99 383.781 304.844 386.031C306.698 388.26 307.625 391.323 307.625 395.219V414.594C307.625 415.531 307.156 416 306.219 416H303.406C302.594 416 302.188 415.531 302.188 414.594V413.062H302.125C300.479 414.354 298.865 415.26 297.281 415.781C295.719 416.281 293.969 416.531 292.031 416.531C288.615 416.531 285.979 415.719 284.125 414.094C282.292 412.448 281.375 410.167 281.375 407.25ZM287.062 407.375C287.062 408.667 287.333 409.708 287.875 410.5C288.417 411.271 289.167 411.771 290.125 412C291.083 412.208 292.083 412.312 293.125 412.312C294.729 412.312 296.25 412.156 297.688 411.844C299.125 411.531 300.604 410.708 302.125 409.375V400.156C297.917 400.469 294.917 400.854 293.125 401.312C291.333 401.75 289.875 402.521 288.75 403.625C287.625 404.708 287.062 405.958 287.062 407.375ZM335.406 373.062C335.073 371.812 335.344 371.188 336.219 371.188H340.031C340.698 371.188 341.146 371.667 341.375 372.625L348.344 402.656C348.635 403.865 348.958 405.177 349.312 406.594C349.688 408.01 350.01 409.344 350.281 410.594H350.438C350.646 409.365 350.885 408.146 351.156 406.938C351.448 405.729 351.771 404.312 352.125 402.688L359.25 372.875C359.521 371.75 360.188 371.188 361.25 371.188H365.562C366.625 371.188 367.292 371.75 367.562 372.875L374.688 402.688C375.042 404.312 375.354 405.729 375.625 406.938C375.917 408.146 376.167 409.365 376.375 410.594H376.531C376.802 409.344 377.115 408.01 377.469 406.594C377.844 405.177 378.177 403.865 378.469 402.656L385.438 372.625C385.667 371.667 386.115 371.188 386.781 371.188H390.594C391.469 371.188 391.74 371.812 391.406 373.062L380.656 413.594C380.24 415.198 379.469 416 378.344 416H374.438C373.396 416 372.656 415.125 372.219 413.375L364.688 383.406C364.312 381.885 364.042 380.646 363.875 379.688C363.708 378.708 363.562 377.698 363.438 376.656H363.375C363.25 377.698 363.104 378.708 362.938 379.688C362.771 380.646 362.5 381.885 362.125 383.406L354.594 413.375C354.156 415.125 353.417 416 352.375 416H348.469C347.344 416 346.573 415.198 346.156 413.594L335.406 373.062ZM395.281 393.594C395.281 386.302 397.073 380.594 400.656 376.469C404.26 372.323 409.448 370.25 416.219 370.25C422.99 370.25 428.167 372.323 431.75 376.469C435.354 380.594 437.156 386.302 437.156 393.594C437.156 400.885 435.354 406.604 431.75 410.75C428.167 414.875 422.99 416.938 416.219 416.938C409.448 416.938 404.26 414.875 400.656 410.75C397.073 406.604 395.281 400.885 395.281 393.594ZM401.688 393.594C401.688 399.427 402.885 403.969 405.281 407.219C407.677 410.448 411.323 412.062 416.219 412.062C421.115 412.062 424.76 410.448 427.156 407.219C429.552 403.969 430.75 399.427 430.75 393.594C430.75 387.76 429.552 383.229 427.156 380C424.76 376.75 421.115 375.125 416.219 375.125C411.323 375.125 407.677 376.75 405.281 380C402.885 383.229 401.688 387.76 401.688 393.594ZM442.906 393.594C442.906 386.302 444.708 380.594 448.312 376.469C451.938 372.323 457.135 370.25 463.906 370.25C467.865 370.25 471.135 370.927 473.719 372.281C476.302 373.615 478.156 375.448 479.281 377.781C479.865 378.99 479.771 379.823 479 380.281L476.531 381.719C475.698 382.198 474.958 381.802 474.312 380.531C473.625 379.219 472.5 377.99 470.938 376.844C469.375 375.698 467.135 375.125 464.219 375.125C459.01 375.125 455.219 376.75 452.844 380C450.49 383.229 449.312 387.76 449.312 393.594C449.312 399.427 450.49 403.969 452.844 407.219C455.219 410.448 459.01 412.062 464.219 412.062C467.219 412.062 469.615 411.375 471.406 410C473.219 408.625 474.531 407.188 475.344 405.688C475.99 404.479 476.74 404.115 477.594 404.594L480.188 406.062C480.938 406.5 481 407.333 480.375 408.562C479.146 410.958 477.146 412.958 474.375 414.562C471.604 416.146 468.115 416.938 463.906 416.938C457.135 416.938 451.938 414.875 448.312 410.75C444.708 406.604 442.906 400.885 442.906 393.594ZM487 400.906C486.062 400.906 485.594 400.542 485.594 399.812V397.625C485.594 396.896 486.062 396.531 487 396.531H501.938C502.875 396.531 503.344 396.896 503.344 397.625V399.812C503.344 400.542 502.875 400.906 501.938 400.906H487ZM507.75 399.594C507.75 394.698 508.958 390.656 511.375 387.469C513.812 384.26 517.531 382.656 522.531 382.656C525.906 382.656 528.479 383.26 530.25 384.469C532.042 385.656 533.333 386.875 534.125 388.125C534.562 388.812 534.469 389.365 533.844 389.781L531.875 391.062C531.25 391.5 530.625 391.219 530 390.219C529.396 389.26 528.542 388.438 527.438 387.75C526.354 387.062 524.719 386.719 522.531 386.719C519.677 386.719 517.469 387.771 515.906 389.875C514.344 391.979 513.562 395.219 513.562 399.594C513.562 403.969 514.344 407.208 515.906 409.312C517.469 411.417 519.677 412.469 522.531 412.469C524.844 412.469 526.615 412.031 527.844 411.156C529.073 410.26 529.969 409.292 530.531 408.25C531.073 407.271 531.688 406.99 532.375 407.406L534.469 408.656C535.094 409.031 535.188 409.594 534.75 410.344C534.229 411.24 533.042 412.5 531.188 414.125C529.354 415.729 526.469 416.531 522.531 416.531C517.531 416.531 513.812 414.938 511.375 411.75C508.958 408.542 507.75 404.49 507.75 399.594ZM539.812 399.594C539.812 394.427 541.104 390.312 543.688 387.25C546.271 384.188 549.969 382.656 554.781 382.656C558.781 382.656 562.094 384.062 564.719 386.875C567.365 389.667 568.688 394.135 568.688 400.281C568.688 401.219 568.26 401.688 567.406 401.688H545.625C545.979 405.708 547.062 408.51 548.875 410.094C550.688 411.656 552.74 412.438 555.031 412.438C557.448 412.438 559.302 412.031 560.594 411.219C561.885 410.406 562.833 409.604 563.438 408.812C564.104 407.938 564.75 407.771 565.375 408.312L567.219 409.906C567.698 410.323 567.698 410.896 567.219 411.625C566.823 412.229 565.688 413.198 563.812 414.531C561.958 415.865 559.031 416.531 555.031 416.531C549.823 416.531 545.979 415 543.5 411.938C541.042 408.875 539.812 404.76 539.812 399.594ZM545.5 397.625H563.156C563.073 394.708 562.323 392.156 560.906 389.969C559.49 387.76 557.406 386.656 554.656 386.656C552.24 386.656 550.188 387.469 548.5 389.094C546.812 390.698 545.812 393.542 545.5 397.625ZM577.312 416C576.375 416 575.906 415.531 575.906 414.594V384.594C575.906 383.656 576.375 383.188 577.312 383.188H579.938C580.875 383.188 581.344 383.656 581.344 384.594V387.094H581.469C582.823 385.594 584.281 384.479 585.844 383.75C587.406 383.021 589.354 382.656 591.688 382.656C595.479 382.656 598.198 383.729 599.844 385.875C601.51 388 602.344 390.917 602.344 394.625V414.594C602.344 415.531 601.875 416 600.938 416H598.25C597.312 416 596.844 415.531 596.844 414.594V396.125C596.844 392.042 596.167 389.458 594.812 388.375C593.458 387.271 591.74 386.719 589.656 386.719C586.948 386.719 584.896 387.531 583.5 389.156C582.104 390.76 581.406 393.521 581.406 397.438V414.594C581.406 415.531 580.938 416 580 416H577.312ZM609.562 387.312C608.625 387.312 608.156 386.948 608.156 386.219V384.281C608.156 383.552 608.625 383.188 609.562 383.188H613.25V380.375C613.25 379.958 613.354 379.562 613.562 379.188L615.75 375.219C616.146 374.49 616.469 374.125 616.719 374.125H617.812C618.438 374.125 618.75 374.49 618.75 375.219V383.188H625.406C626.344 383.188 626.812 383.552 626.812 384.281V386.219C626.812 386.948 626.344 387.312 625.406 387.312H618.75V407.219C618.75 409.406 619.073 410.833 619.719 411.5C620.385 412.146 621.177 412.469 622.094 412.469C622.802 412.469 623.646 412.26 624.625 411.844C625.625 411.427 626.312 411.073 626.688 410.781C627.062 410.49 627.354 410.583 627.562 411.062L628.594 413.469C628.76 413.885 628.635 414.219 628.219 414.469C627.406 414.948 626.219 415.417 624.656 415.875C623.094 416.312 621.531 416.531 619.969 416.531C617.802 416.531 616.135 415.75 614.969 414.188C613.823 412.625 613.25 410.417 613.25 407.562V387.312H609.562ZM633.062 399.594C633.062 394.427 634.354 390.312 636.938 387.25C639.521 384.188 643.219 382.656 648.031 382.656C652.031 382.656 655.344 384.062 657.969 386.875C660.615 389.667 661.938 394.135 661.938 400.281C661.938 401.219 661.51 401.688 660.656 401.688H638.875C639.229 405.708 640.312 408.51 642.125 410.094C643.938 411.656 645.99 412.438 648.281 412.438C650.698 412.438 652.552 412.031 653.844 411.219C655.135 410.406 656.083 409.604 656.688 408.812C657.354 407.938 658 407.771 658.625 408.312L660.469 409.906C660.948 410.323 660.948 410.896 660.469 411.625C660.073 412.229 658.938 413.198 657.062 414.531C655.208 415.865 652.281 416.531 648.281 416.531C643.073 416.531 639.229 415 636.75 411.938C634.292 408.875 633.062 404.76 633.062 399.594ZM638.75 397.625H656.406C656.323 394.708 655.573 392.156 654.156 389.969C652.74 387.76 650.656 386.656 647.906 386.656C645.49 386.656 643.438 387.469 641.75 389.094C640.062 390.698 639.062 393.542 638.75 397.625ZM670.562 416C669.625 416 669.156 415.531 669.156 414.594V384.594C669.156 383.656 669.625 383.188 670.562 383.188H673.188C674.125 383.188 674.594 383.656 674.594 384.594V388.344H674.719C675.719 386.469 676.896 385.052 678.25 384.094C679.604 383.135 681.292 382.656 683.312 382.656C684.646 382.656 685.583 382.771 686.125 383C686.604 383.188 686.781 383.5 686.656 383.938L685.938 386.5C685.833 386.875 685.562 387.021 685.125 386.938C684.396 386.792 683.708 386.719 683.062 386.719C680.625 386.719 678.615 387.823 677.031 390.031C675.448 392.219 674.656 395.208 674.656 399V414.594C674.656 415.531 674.188 416 673.25 416H670.562ZM689.938 399.594C689.938 394.427 691.229 390.312 693.812 387.25C696.396 384.188 700.094 382.656 704.906 382.656C708.906 382.656 712.219 384.062 714.844 386.875C717.49 389.667 718.812 394.135 718.812 400.281C718.812 401.219 718.385 401.688 717.531 401.688H695.75C696.104 405.708 697.188 408.51 699 410.094C700.812 411.656 702.865 412.438 705.156 412.438C707.573 412.438 709.427 412.031 710.719 411.219C712.01 410.406 712.958 409.604 713.562 408.812C714.229 407.938 714.875 407.771 715.5 408.312L717.344 409.906C717.823 410.323 717.823 410.896 717.344 411.625C716.948 412.229 715.812 413.198 713.938 414.531C712.083 415.865 709.156 416.531 705.156 416.531C699.948 416.531 696.104 415 693.625 411.938C691.167 408.875 689.938 404.76 689.938 399.594ZM695.625 397.625H713.281C713.198 394.708 712.448 392.156 711.031 389.969C709.615 387.76 707.531 386.656 704.781 386.656C702.365 386.656 700.312 387.469 698.625 389.094C696.938 390.698 695.938 393.542 695.625 397.625ZM724.25 399.594C724.25 395.115 725.333 391.177 727.5 387.781C729.667 384.365 732.833 382.656 737 382.656C739.396 382.656 741.312 383.052 742.75 383.844C744.188 384.635 745.479 385.719 746.625 387.094H746.688C746.646 386.469 746.625 385.833 746.625 385.188V371.281C746.625 370.344 747.094 369.875 748.031 369.875H750.719C751.656 369.875 752.125 370.344 752.125 371.281V414.594C752.125 415.531 751.656 416 750.719 416H748.094C747.344 416 746.938 415.531 746.875 414.594L746.688 412.094H746.625C745.479 413.469 744.188 414.552 742.75 415.344C741.312 416.135 739.396 416.531 737 416.531C732.833 416.531 729.667 414.833 727.5 411.438C725.333 408.021 724.25 404.073 724.25 399.594ZM730.062 399.594C730.062 403.427 730.719 406.531 732.031 408.906C733.365 411.281 735.615 412.469 738.781 412.469C741.031 412.469 742.896 411.708 744.375 410.188C745.875 408.646 746.625 406.312 746.625 403.188V396C746.625 392.875 745.875 390.552 744.375 389.031C742.896 387.49 741.031 386.719 738.781 386.719C735.615 386.719 733.365 387.906 732.031 390.281C730.719 392.656 730.062 395.76 730.062 399.594ZM783.75 428.5C782.812 428.5 782.344 428.031 782.344 427.094V384.594C782.344 383.656 782.812 383.188 783.75 383.188H786.375C787.125 383.188 787.531 383.656 787.594 384.594L787.781 387.094H787.844C788.99 385.719 790.281 384.635 791.719 383.844C793.156 383.052 795.073 382.656 797.469 382.656C801.635 382.656 804.802 384.365 806.969 387.781C809.135 391.177 810.219 395.115 810.219 399.594C810.219 404.073 809.135 408.021 806.969 411.438C804.802 414.833 801.635 416.531 797.469 416.531C795.073 416.531 793.156 416.135 791.719 415.344C790.281 414.552 788.99 413.469 787.844 412.094H787.781C787.823 412.719 787.844 413.354 787.844 414V427.094C787.844 428.031 787.375 428.5 786.438 428.5H783.75ZM787.844 403.188C787.844 406.312 788.583 408.646 790.062 410.188C791.562 411.708 793.438 412.469 795.688 412.469C798.854 412.469 801.094 411.281 802.406 408.906C803.74 406.531 804.406 403.427 804.406 399.594C804.406 395.76 803.74 392.656 802.406 390.281C801.094 387.906 798.854 386.719 795.688 386.719C793.438 386.719 791.562 387.49 790.062 389.031C788.583 390.552 787.844 392.875 787.844 396V403.188ZM815.562 399.594C815.562 394.698 816.854 390.656 819.438 387.469C822.042 384.26 825.844 382.656 830.844 382.656C835.844 382.656 839.635 384.26 842.219 387.469C844.823 390.656 846.125 394.698 846.125 399.594C846.125 404.49 844.823 408.542 842.219 411.75C839.635 414.938 835.844 416.531 830.844 416.531C825.844 416.531 822.042 414.938 819.438 411.75C816.854 408.542 815.562 404.49 815.562 399.594ZM821.375 399.594C821.375 403.969 822.24 407.208 823.969 409.312C825.698 411.417 827.99 412.469 830.844 412.469C833.698 412.469 835.99 411.417 837.719 409.312C839.448 407.208 840.312 403.969 840.312 399.594C840.312 395.219 839.448 391.979 837.719 389.875C835.99 387.771 833.698 386.719 830.844 386.719C827.99 386.719 825.698 387.771 823.969 389.875C822.24 391.979 821.375 395.219 821.375 399.594ZM851.438 399.594C851.438 394.427 852.729 390.312 855.312 387.25C857.896 384.188 861.594 382.656 866.406 382.656C870.406 382.656 873.719 384.062 876.344 386.875C878.99 389.667 880.312 394.135 880.312 400.281C880.312 401.219 879.885 401.688 879.031 401.688H857.25C857.604 405.708 858.688 408.51 860.5 410.094C862.312 411.656 864.365 412.438 866.656 412.438C869.073 412.438 870.927 412.031 872.219 411.219C873.51 410.406 874.458 409.604 875.062 408.812C875.729 407.938 876.375 407.771 877 408.312L878.844 409.906C879.323 410.323 879.323 410.896 878.844 411.625C878.448 412.229 877.312 413.198 875.438 414.531C873.583 415.865 870.656 416.531 866.656 416.531C861.448 416.531 857.604 415 855.125 411.938C852.667 408.875 851.438 404.76 851.438 399.594ZM857.125 397.625H874.781C874.698 394.708 873.948 392.156 872.531 389.969C871.115 387.76 869.031 386.656 866.281 386.656C863.865 386.656 861.812 387.469 860.125 389.094C858.438 390.698 857.438 393.542 857.125 397.625ZM885.938 387.312C885 387.312 884.531 386.948 884.531 386.219V384.281C884.531 383.552 885 383.188 885.938 383.188H889.625V380.375C889.625 379.958 889.729 379.562 889.938 379.188L892.125 375.219C892.521 374.49 892.844 374.125 893.094 374.125H894.188C894.812 374.125 895.125 374.49 895.125 375.219V383.188H901.781C902.719 383.188 903.188 383.552 903.188 384.281V386.219C903.188 386.948 902.719 387.312 901.781 387.312H895.125V407.219C895.125 409.406 895.448 410.833 896.094 411.5C896.76 412.146 897.552 412.469 898.469 412.469C899.177 412.469 900.021 412.26 901 411.844C902 411.427 902.688 411.073 903.062 410.781C903.438 410.49 903.729 410.583 903.938 411.062L904.969 413.469C905.135 413.885 905.01 414.219 904.594 414.469C903.781 414.948 902.594 415.417 901.031 415.875C899.469 416.312 897.906 416.531 896.344 416.531C894.177 416.531 892.51 415.75 891.344 414.188C890.198 412.625 889.625 410.417 889.625 407.562V387.312H885.938ZM912.625 416C911.688 416 911.219 415.531 911.219 414.594V384.594C911.219 383.656 911.688 383.188 912.625 383.188H915.25C916.188 383.188 916.656 383.656 916.656 384.594V388.344H916.781C917.781 386.469 918.958 385.052 920.312 384.094C921.667 383.135 923.354 382.656 925.375 382.656C926.708 382.656 927.646 382.771 928.188 383C928.667 383.188 928.844 383.5 928.719 383.938L928 386.5C927.896 386.875 927.625 387.021 927.188 386.938C926.458 386.792 925.771 386.719 925.125 386.719C922.688 386.719 920.677 387.823 919.094 390.031C917.51 392.219 916.719 395.208 916.719 399V414.594C916.719 415.531 916.25 416 915.312 416H912.625ZM931.5 384.719C931.125 383.698 931.406 383.188 932.344 383.188H935.75C936.438 383.188 936.906 383.594 937.156 384.406L943.719 405.031C943.906 405.594 944.188 406.479 944.562 407.688C944.958 408.875 945.24 409.938 945.406 410.875H945.469C945.635 409.938 945.833 409.094 946.062 408.344C946.312 407.573 946.677 406.469 947.156 405.031L953.781 384.406C954.052 383.594 954.521 383.188 955.188 383.188H958.594C959.531 383.188 959.812 383.698 959.438 384.719L948.906 414.094C946.927 419.615 945.156 423.479 943.594 425.688C942.031 427.917 939.698 429.031 936.594 429.031C934.969 429.031 933.677 428.792 932.719 428.312C932.281 428.104 932.135 427.781 932.281 427.344L933.094 424.812C933.24 424.375 933.521 424.25 933.938 424.438C934.792 424.792 935.615 424.969 936.406 424.969C937.865 424.969 939.052 424.177 939.969 422.594C940.885 421.031 941.615 419.458 942.156 417.875L942.781 416.031L931.5 384.719ZM547.281 491.594C547.281 486.698 548.49 482.656 550.906 479.469C553.344 476.26 557.062 474.656 562.062 474.656C565.438 474.656 568.01 475.26 569.781 476.469C571.573 477.656 572.865 478.875 573.656 480.125C574.094 480.812 574 481.365 573.375 481.781L571.406 483.062C570.781 483.5 570.156 483.219 569.531 482.219C568.927 481.26 568.073 480.438 566.969 479.75C565.885 479.062 564.25 478.719 562.062 478.719C559.208 478.719 557 479.771 555.438 481.875C553.875 483.979 553.094 487.219 553.094 491.594C553.094 495.969 553.875 499.208 555.438 501.312C557 503.417 559.208 504.469 562.062 504.469C564.375 504.469 566.146 504.031 567.375 503.156C568.604 502.26 569.5 501.292 570.062 500.25C570.604 499.271 571.219 498.99 571.906 499.406L574 500.656C574.625 501.031 574.719 501.594 574.281 502.344C573.76 503.24 572.573 504.5 570.719 506.125C568.885 507.729 566 508.531 562.062 508.531C557.062 508.531 553.344 506.938 550.906 503.75C548.49 500.542 547.281 496.49 547.281 491.594ZM582.531 508C581.594 508 581.125 507.531 581.125 506.594V476.594C581.125 475.656 581.594 475.188 582.531 475.188H585.219C586.156 475.188 586.625 475.656 586.625 476.594V506.594C586.625 507.531 586.156 508 585.219 508H582.531ZM582.531 469.25C581.594 469.25 581.125 468.781 581.125 467.844V465.156C581.125 464.219 581.594 463.75 582.531 463.75H585.219C586.156 463.75 586.625 464.219 586.625 465.156V467.844C586.625 468.781 586.156 469.25 585.219 469.25H582.531ZM596.906 508C595.969 508 595.5 507.531 595.5 506.594V476.594C595.5 475.656 595.969 475.188 596.906 475.188H599.531C600.469 475.188 600.938 475.656 600.938 476.594V480.344H601.062C602.062 478.469 603.24 477.052 604.594 476.094C605.948 475.135 607.635 474.656 609.656 474.656C610.99 474.656 611.927 474.771 612.469 475C612.948 475.188 613.125 475.5 613 475.938L612.281 478.5C612.177 478.875 611.906 479.021 611.469 478.938C610.74 478.792 610.052 478.719 609.406 478.719C606.969 478.719 604.958 479.823 603.375 482.031C601.792 484.219 601 487.208 601 491V506.594C601 507.531 600.531 508 599.594 508H596.906ZM616.281 491.594C616.281 486.698 617.49 482.656 619.906 479.469C622.344 476.26 626.062 474.656 631.062 474.656C634.438 474.656 637.01 475.26 638.781 476.469C640.573 477.656 641.865 478.875 642.656 480.125C643.094 480.812 643 481.365 642.375 481.781L640.406 483.062C639.781 483.5 639.156 483.219 638.531 482.219C637.927 481.26 637.073 480.438 635.969 479.75C634.885 479.062 633.25 478.719 631.062 478.719C628.208 478.719 626 479.771 624.438 481.875C622.875 483.979 622.094 487.219 622.094 491.594C622.094 495.969 622.875 499.208 624.438 501.312C626 503.417 628.208 504.469 631.062 504.469C633.375 504.469 635.146 504.031 636.375 503.156C637.604 502.26 638.5 501.292 639.062 500.25C639.604 499.271 640.219 498.99 640.906 499.406L643 500.656C643.625 501.031 643.719 501.594 643.281 502.344C642.76 503.24 641.573 504.5 639.719 506.125C637.885 507.729 635 508.531 631.062 508.531C626.062 508.531 622.344 506.938 619.906 503.75C617.49 500.542 616.281 496.49 616.281 491.594ZM651.531 508C650.594 508 650.125 507.531 650.125 506.594V467.594C650.125 467.177 650.229 466.781 650.438 466.406L652.625 462.438C653.021 461.708 653.344 461.344 653.594 461.344H654.688C655.312 461.344 655.625 461.708 655.625 462.438V506.594C655.625 507.531 655.156 508 654.219 508H651.531ZM662.719 491.594C662.719 486.427 664.01 482.312 666.594 479.25C669.177 476.188 672.875 474.656 677.688 474.656C681.688 474.656 685 476.062 687.625 478.875C690.271 481.667 691.594 486.135 691.594 492.281C691.594 493.219 691.167 493.688 690.312 493.688H668.531C668.885 497.708 669.969 500.51 671.781 502.094C673.594 503.656 675.646 504.438 677.938 504.438C680.354 504.438 682.208 504.031 683.5 503.219C684.792 502.406 685.74 501.604 686.344 500.812C687.01 499.938 687.656 499.771 688.281 500.312L690.125 501.906C690.604 502.323 690.604 502.896 690.125 503.625C689.729 504.229 688.594 505.198 686.719 506.531C684.865 507.865 681.938 508.531 677.938 508.531C672.729 508.531 668.885 507 666.406 503.938C663.948 500.875 662.719 496.76 662.719 491.594ZM668.406 489.625H686.062C685.979 486.708 685.229 484.156 683.812 481.969C682.396 479.76 680.312 478.656 677.562 478.656C675.146 478.656 673.094 479.469 671.406 481.094C669.719 482.698 668.719 485.542 668.406 489.625Z" fill="url(#paint2_radial_176_27)"/>
<defs>
<radialGradient id="paint0_radial_176_27" cx="0" cy="0" r="1" gradientUnits="userSpaceOnUse" gradientTransform="translate(619.5 352.5) rotate(90) scale(352.5 619.5)">
<stop stop-color="#F4FFE8"/>
<stop offset="1" stop-color="#CAFF9C"/>
</radialGradient>
<radialGradient id="paint1_radial_176_27" cx="0" cy="0" r="1" gradientUnits="userSpaceOnUse" gradientTransform="translate(620 246) rotate(-90) scale(117.5 261.532)">
<stop offset="1" stop-color="#FF00D0"/>
</radialGradient>
<radialGradient id="paint2_radial_176_27" cx="0" cy="0" r="1" gradientUnits="userSpaceOnUse" gradientTransform="translate(620 246) rotate(-90) scale(117.5 261.532)">
<stop stop-color="#FBFF79"/>
<stop offset="1" stop-color="#FF00D0"/>
</radialGradient>
</defs>
</svg>
